<svg width="27" height="28" viewBox="0 0 27 28" fill="none" xmlns="http://www.w3.org/2000/svg">
<path opacity="0.974" fill-rule="evenodd" clip-rule="evenodd" d="M21.9639 5.27246C17.0244 5.26367 12.0849 5.27246 7.14553 5.29883C6.79395 5.61524 6.79395 5.93164 7.14553 6.24805C12.085 6.28322 17.0244 6.28322 21.9639 6.24805C22.3823 5.9231 22.3823 5.59788 21.9639 5.27246Z" fill="#666666"/>
<path opacity="0.927" fill-rule="evenodd" clip-rule="evenodd" d="M21.8584 13.2354C16.3037 13.2265 10.749 13.2354 5.19434 13.2617C4.75817 13.5307 4.723 13.8471 5.08887 14.2109C5.15916 14.2285 5.22951 14.2461 5.2998 14.2637C10.7842 14.2988 16.2686 14.2988 21.7529 14.2637C22.2074 14.1137 22.3217 13.8237 22.0957 13.3936C22.0086 13.3461 21.9295 13.2934 21.8584 13.2354Z" fill="#666666"/>
<path opacity="0.972" fill-rule="evenodd" clip-rule="evenodd" d="M21.9638 21.7256C18.0439 21.7168 14.124 21.7256 10.2041 21.752C9.83887 22.0943 9.85643 22.4107 10.2568 22.7012C14.1591 22.7363 18.0615 22.7363 21.9638 22.7012C22.3815 22.3738 22.3815 22.0487 21.9638 21.7256Z" fill="#666666"/>
</svg>
