<svg width="22" height="22" viewBox="0 0 22 22" fill="none" xmlns="http://www.w3.org/2000/svg">
<path opacity="0.979" fill-rule="evenodd" clip-rule="evenodd" d="M10.7208 1.35359C11.1445 1.26119 11.4524 1.40442 11.6446 1.78328C11.6589 5.87962 11.6733 9.976 11.6876 14.0723C12.9122 12.8477 14.1368 11.6231 15.3614 10.3985C15.6479 10.2553 15.9343 10.2553 16.2208 10.3985C16.5031 10.6969 16.5532 11.0335 16.3712 11.4083C14.7169 13.0626 13.0626 14.7169 11.4083 16.3712C11.1218 16.5144 10.8354 16.5144 10.5489 16.3712C8.89463 14.7169 7.24033 13.0626 5.58603 11.4083C5.40402 11.0335 5.45416 10.6969 5.73642 10.3985C6.0229 10.2553 6.30933 10.2553 6.5958 10.3985C7.82041 11.6231 9.04502 12.8477 10.2696 14.0723C10.2839 9.976 10.2983 5.87962 10.3126 1.78328C10.3995 1.58906 10.5356 1.44583 10.7208 1.35359Z" fill="#ED7411"/>
<path opacity="0.994" fill-rule="evenodd" clip-rule="evenodd" d="M1.7832 15.7911C2.20688 15.6987 2.51482 15.8419 2.70703 16.2208C2.72852 17.2233 2.73568 18.2259 2.72852 19.2286C8.22852 19.2286 13.7285 19.2286 19.2285 19.2286C19.2213 18.2259 19.2285 17.2233 19.25 16.2208C19.3706 15.9205 19.5926 15.7773 19.916 15.7911C20.2394 15.7773 20.4614 15.9205 20.582 16.2208C20.6107 17.338 20.6107 18.4551 20.582 19.5723C20.446 20.1094 20.1094 20.446 19.5723 20.5821C13.8431 20.6108 8.11392 20.6108 2.38477 20.5821C1.84766 20.446 1.51107 20.1094 1.375 19.5723C1.34635 18.4551 1.34635 17.338 1.375 16.2208C1.4619 16.0266 1.59797 15.8833 1.7832 15.7911Z" fill="#ED7411"/>
</svg>
