<svg width="25" height="25" viewBox="0 0 25 25" fill="none" xmlns="http://www.w3.org/2000/svg">
<path opacity="0.985" fill-rule="evenodd" clip-rule="evenodd" d="M11.792 3.10067C11.9618 3.08525 12.1246 3.10966 12.2803 3.17391C13.4364 4.21635 14.2583 5.47772 14.7461 6.95809C14.9062 7.66585 14.9551 8.38197 14.8926 9.10653C14.7679 10.0123 14.5888 10.9075 14.3555 11.7921C14.216 12.5954 14.5333 13.1244 15.3076 13.379C16.3748 13.5247 17.1479 13.1097 17.6269 12.1339C17.715 11.8858 17.8127 11.6417 17.9199 11.4015C18.1478 11.2061 18.3756 11.2061 18.6035 11.4015C20.2252 14.4158 19.9648 17.2478 17.8223 19.8975C17.0099 20.7749 16.0415 21.4178 14.917 21.8263C14.8193 21.8588 14.7217 21.8588 14.624 21.8263C14.5726 21.7585 14.5644 21.6852 14.5996 21.6065C15.3715 20.7482 15.7866 19.7391 15.8447 18.5792C15.2033 18.7359 14.5522 18.8336 13.8916 18.8722C12.0196 18.8474 11.0023 17.9035 10.8398 16.0401C10.8152 15.5343 10.8152 15.0297 10.8398 14.5265C9.49809 15.5822 8.77378 16.9657 8.66699 18.6768C8.68086 19.3776 8.86801 20.0286 9.22851 20.63C9.43637 20.9317 9.6561 21.2246 9.88769 21.5089C9.85512 21.6065 9.79003 21.6716 9.69238 21.7042C7.13007 20.5364 5.67334 18.5508 5.32226 15.7472C5.17807 13.8689 5.66635 12.1762 6.78711 10.669C7.5478 9.68026 8.34536 8.71996 9.17968 7.78817C10.3114 6.45296 11.1252 4.93929 11.6211 3.24715C11.677 3.19166 11.734 3.14284 11.792 3.10067Z" fill="#ED7411"/>
</svg>
