<svg width="25" height="25" viewBox="0 0 25 25" fill="none" xmlns="http://www.w3.org/2000/svg">
<g clip-path="url(#clip0_170_1113)">
<path opacity="0.974" fill-rule="evenodd" clip-rule="evenodd" d="M5.93262 -0.0244141C10.2946 -0.0244141 14.6566 -0.0244141 19.0186 -0.0244141C22.3551 0.610352 24.3408 2.59603 24.9756 5.93262C24.9756 10.2946 24.9756 14.6566 24.9756 19.0186C24.3408 22.3551 22.3551 24.3408 19.0186 24.9756C14.6566 24.9756 10.2946 24.9756 5.93262 24.9756C2.59603 24.3408 0.610352 22.3551 -0.0244141 19.0186C-0.0244141 14.6566 -0.0244141 10.2946 -0.0244141 5.93262C0.610352 2.59603 2.59603 0.610352 5.93262 -0.0244141ZM6.0791 1.48926C10.3435 1.48112 14.6078 1.48926 18.8721 1.51367C21.2895 1.94539 22.795 3.35326 23.3887 5.7373C23.4374 6.07749 23.4699 6.41929 23.4863 6.7627C23.5189 10.5713 23.5189 14.3799 23.4863 18.1885C23.3453 20.6724 22.1165 22.357 19.7998 23.2422C19.2739 23.3964 18.7368 23.4777 18.1885 23.4863C14.3799 23.5189 10.5713 23.5189 6.7627 23.4863C4.45575 23.3751 2.82001 22.2765 1.85547 20.1904C1.68811 19.7651 1.57418 19.3257 1.51367 18.8721C1.46572 14.4925 1.48199 10.1143 1.5625 5.7373C2.1647 3.35268 3.67023 1.93666 6.0791 1.48926Z" fill="white"/>
<path opacity="0.963" fill-rule="evenodd" clip-rule="evenodd" d="M19.1163 3.19834C20.3658 3.10996 21.1552 3.66334 21.4845 4.85849C21.6096 5.91884 21.1946 6.67568 20.2394 7.129C19.1131 7.46963 18.2423 7.13593 17.6271 6.12802C17.215 5.03681 17.4835 4.14977 18.4327 3.46689C18.6602 3.36153 18.8881 3.27201 19.1163 3.19834ZM19.3116 4.71201C19.1935 4.79226 19.0877 4.88994 18.9943 5.00498C18.8994 5.31699 18.9889 5.55298 19.2628 5.71299C19.5991 5.82119 19.8351 5.71538 19.9708 5.3956C20.0107 4.9227 19.791 4.69486 19.3116 4.71201Z" fill="white"/>
<path opacity="0.962" fill-rule="evenodd" clip-rule="evenodd" d="M11.6945 5.6396C14.6489 5.46054 16.9031 6.61616 18.4572 9.10639C19.3703 10.8165 19.5657 12.6068 19.0431 14.4775C18.0756 17.236 16.1469 18.8392 13.257 19.2871C10.3015 19.4899 8.0472 18.3424 6.49427 15.8447C5.58109 14.1346 5.38578 12.3442 5.90834 10.4736C6.88714 7.71865 8.81586 6.10732 11.6945 5.6396ZM11.7921 7.15327C9.22113 7.66533 7.68304 9.21157 7.17787 11.7919C7.01087 14.4218 8.10951 16.3017 10.4738 17.4316C12.4909 18.1506 14.3301 17.8414 15.9913 16.5039C17.7488 14.8042 18.2289 12.7941 17.4318 10.4736C16.3006 8.11679 14.4207 7.01001 11.7921 7.15327Z" fill="white"/>
</g>
<defs>
<clipPath id="clip0_170_1113">
<rect width="25" height="25" fill="white"/>
</clipPath>
</defs>
</svg>
