<svg width="12" height="12" viewBox="0 0 12 12" fill="none" xmlns="http://www.w3.org/2000/svg">
<path opacity="0.977" fill-rule="evenodd" clip-rule="evenodd" d="M7.8499 0.00156265C9.14993 -0.00260431 10.4499 0.00156265 11.7499 0.014061C11.8624 0.0598875 11.9416 0.139045 11.9874 0.25153C12.0041 1.55136 12.0041 2.85119 11.9874 4.15102C11.9172 4.32567 11.7881 4.40899 11.5999 4.40099C11.4117 4.40899 11.2826 4.32567 11.2124 4.15102C11.2041 3.23446 11.1957 2.31793 11.1874 1.40138C9.2749 3.31363 7.3624 5.22588 5.44989 7.13813C4.99071 7.29546 4.77821 7.13298 4.81239 6.65069C4.82906 6.61737 4.84571 6.58402 4.86239 6.5507C6.7749 4.63845 8.6874 2.72621 10.5999 0.813956C9.68323 0.805625 8.76658 0.797291 7.8499 0.78896C7.67522 0.718799 7.5919 0.589648 7.5999 0.40151C7.59495 0.21115 7.67827 0.0778352 7.8499 0.00156265Z" fill="#ED7411"/>
<path opacity="0.994" fill-rule="evenodd" clip-rule="evenodd" d="M0.950004 1.60139C2.68336 1.59722 4.41669 1.60139 6.15002 1.61388C6.3247 1.68404 6.40802 1.8132 6.40002 2.00133C6.40802 2.18948 6.3247 2.31862 6.15002 2.38878C4.50002 2.39711 2.85001 2.40546 1.2 2.41378C0.970837 2.44295 0.841671 2.57208 0.812504 2.80123C0.795836 5.46755 0.795836 8.13386 0.812504 10.8002C0.841671 11.0293 0.970837 11.1585 1.2 11.1876C3.86669 11.2043 6.53335 11.2043 9.20003 11.1876C9.42921 11.1585 9.55836 11.0293 9.58753 10.8002C9.59586 9.1504 9.60421 7.50061 9.61254 5.85083C9.68271 5.67618 9.81186 5.59286 10 5.60086C10.1882 5.59286 10.3174 5.67618 10.3875 5.85083C10.4042 7.58393 10.4042 9.31705 10.3875 11.0501C10.2584 11.5459 9.94586 11.8584 9.45004 11.9875C6.6167 12.0042 3.78334 12.0042 0.950004 11.9875C0.45417 11.8584 0.141669 11.5459 0.0125007 11.0501C-0.00416689 8.21719 -0.00416689 5.38422 0.0125007 2.55126C0.146221 2.05512 0.458722 1.7385 0.950004 1.60139Z" fill="#ED7411"/>
</svg>
