<svg width="25" height="26" viewBox="0 0 25 26" fill="none" xmlns="http://www.w3.org/2000/svg">
<path opacity="0.945" fill-rule="evenodd" clip-rule="evenodd" d="M9.05762 2.86816C9.55024 2.80733 9.9897 2.9294 10.376 3.23437C11.104 3.9494 11.6817 4.77135 12.1094 5.70019C12.5308 6.427 12.7424 7.20825 12.7441 8.04394C12.6842 8.67261 12.3994 9.16899 11.8896 9.5332C11.4665 9.77734 11.0433 10.0215 10.6201 10.2656C10.2124 10.8296 10.1716 11.4237 10.498 12.0478C11.2753 13.3582 12.0403 14.6766 12.793 16.0029C13.1218 16.4947 13.5775 16.7876 14.1602 16.8818C14.71 16.6598 15.2389 16.3913 15.7471 16.0762C16.6438 15.7617 17.4413 15.9245 18.1396 16.5645C18.9703 17.4935 19.6457 18.527 20.166 19.665C20.3738 20.1503 20.4552 20.6549 20.4102 21.1787C20.3521 21.4088 20.2544 21.6205 20.1172 21.8135C18.2282 23.1064 16.1855 23.4075 13.9893 22.7168C12.1899 22.0079 10.7332 20.8604 9.61914 19.2744C8.55288 17.5327 7.51123 15.7749 6.49414 14.001C5.64653 12.4742 5.19897 10.8385 5.15137 9.09375C5.21816 6.22378 6.52026 4.14857 9.05762 2.86816ZM9.35059 3.94238C9.63325 4.0534 9.86924 4.23244 10.0586 4.47949C10.631 5.26591 11.103 6.11225 11.4746 7.01855C11.6698 7.47139 11.6861 7.9271 11.5234 8.38574C11.015 8.7499 10.4861 9.08359 9.93652 9.38672C9.23403 10.1314 9.01431 11.0022 9.27734 11.999C9.33179 12.2055 9.41313 12.4008 9.52148 12.585C10.3353 13.9847 11.1491 15.3844 11.9629 16.7842C12.7453 17.7828 13.7462 18.1165 14.9658 17.7852C15.4401 17.4992 15.9284 17.2387 16.4307 17.0039C16.7231 16.9766 16.9835 17.058 17.2119 17.248C18.0283 18.0812 18.6712 19.0333 19.1406 20.1045C19.2759 20.4012 19.3248 20.7105 19.2871 21.0322C17.1523 22.35 15.0283 22.3256 12.915 20.959C12.494 20.652 12.0872 20.3265 11.6943 19.9824C11.2224 19.5014 10.7911 18.9887 10.4004 18.4443C9.38809 16.7643 8.39526 15.0716 7.42188 13.3662C6.69048 12.0349 6.30801 10.6107 6.27441 9.09375C6.29873 6.7689 7.32412 5.05178 9.35059 3.94238Z" fill="#666666"/>
</svg>
