<svg width="25" height="25" viewBox="0 0 25 25" fill="none" xmlns="http://www.w3.org/2000/svg">
<g clip-path="url(#clip0_244_12)">
<path opacity="0.964" fill-rule="evenodd" clip-rule="evenodd" d="M11.3525 0.463867C12.1012 0.463867 12.85 0.463867 13.5986 0.463867C18.4703 1.09612 21.9452 3.63519 24.0234 8.08105C24.5184 9.29585 24.8357 10.5491 24.9756 11.8408C24.9756 12.5895 24.9756 13.3382 24.9756 14.0869C24.3433 18.9585 21.8042 22.4335 17.3584 24.5117C16.1437 25.0066 14.8904 25.324 13.5986 25.4639C12.85 25.4639 12.1012 25.4639 11.3525 25.4639C6.48081 24.8315 3.00588 22.2924 0.927734 17.8467C0.432809 16.6319 0.115426 15.3786 -0.0244141 14.0869C-0.0244141 13.3382 -0.0244141 12.5895 -0.0244141 11.8408C0.607842 6.96919 3.1469 3.49425 7.59277 1.41602C8.80757 0.92109 10.0608 0.603707 11.3525 0.463867ZM12.4268 2.02637C17.1185 2.2427 20.4795 4.45625 22.5098 8.66699C23.8963 12.1914 23.6196 15.5768 21.6797 18.8232C19.4817 22.0591 16.4136 23.7519 12.4756 23.9014C8.53755 23.7519 5.46948 22.0591 3.27148 18.8232C1.42023 15.7641 1.07843 12.5414 2.24609 9.15527C3.38967 6.28643 5.36719 4.21122 8.17871 2.92969C9.54487 2.36194 10.9609 2.06083 12.4268 2.02637Z" fill="white"/>
<path opacity="0.965" fill-rule="evenodd" clip-rule="evenodd" d="M17.7976 6.07919C18.44 5.98412 18.7981 6.25267 18.8718 6.88485C18.2096 10.6548 17.5341 14.4227 16.8455 18.1886C16.6989 18.7249 16.3489 18.9447 15.7957 18.8477C14.5801 18.2603 13.3675 17.6662 12.158 17.0655C11.5482 17.6427 10.9378 18.2205 10.3269 18.7989C9.70704 19.0109 9.30826 18.8074 9.13062 18.1886C9.09805 17.0981 9.09805 16.0076 9.13062 14.9171C9.2025 14.6005 9.3734 14.3482 9.64332 14.1602C9.17115 14.3389 8.69913 14.5342 8.2273 14.7462C7.99942 14.8438 7.77159 14.8438 7.54371 14.7462C6.46949 14.0626 5.39527 13.379 4.32105 12.6954C4.00478 12.3728 3.94781 12.0066 4.15015 11.5968C4.24163 11.4889 4.34742 11.3994 4.46754 11.3282C8.92154 9.59154 13.3649 7.84188 17.7976 6.07919ZM16.9187 8.1788C13.5051 9.5285 10.0872 10.8794 6.6648 12.2315C7.07965 12.5449 7.5191 12.8216 7.98316 13.0616C9.63682 12.3774 11.2807 11.6694 12.9148 10.9376C13.0405 10.8908 13.1707 10.8664 13.3054 10.8643C14.0252 11.0178 14.2449 11.441 13.9646 12.1339C12.8904 13.2081 11.8162 14.2823 10.742 15.3565C10.7094 15.6169 10.7094 15.8774 10.742 16.1378C10.9942 15.8855 11.2465 15.6332 11.4988 15.3809C11.7298 15.2637 11.974 15.2311 12.2312 15.2833C13.3071 15.7928 14.3732 16.3217 15.4295 16.8702C15.9585 13.9974 16.4874 11.1246 17.0164 8.25204C17 8.20175 16.9674 8.17733 16.9187 8.1788Z" fill="white"/>
</g>
<defs>
<clipPath id="clip0_244_12">
<rect width="25" height="25" fill="white"/>
</clipPath>
</defs>
</svg>
