<svg width="16" height="16" viewBox="0 0 16 16" fill="none" xmlns="http://www.w3.org/2000/svg">
<g clip-path="url(#clip0_170_1013)">
<path opacity="0.994" fill-rule="evenodd" clip-rule="evenodd" d="M7.29688 -0.015625C7.75522 -0.015625 8.21353 -0.015625 8.67188 -0.015625C11.8052 0.376275 14.0396 2.00128 15.375 4.85938C15.6967 5.64638 15.8999 6.45888 15.9844 7.29688C15.9844 7.75522 15.9844 8.21353 15.9844 8.67188C15.5925 11.8052 13.9675 14.0396 11.1094 15.375C10.3224 15.6967 9.50988 15.8999 8.67188 15.9844C8.21353 15.9844 7.75522 15.9844 7.29688 15.9844C6.00216 15.858 4.80422 15.4465 3.70312 14.75C3.65519 14.7212 3.60309 14.7055 3.54688 14.7031C2.53455 15.0197 1.52413 15.3427 0.515625 15.6719C0.820147 14.68 1.14306 13.6852 1.48438 12.6875C0.635622 11.4798 0.135622 10.1413 -0.015625 8.67188C-0.015625 8.21353 -0.015625 7.75522 -0.015625 7.29688C0.376275 4.16356 2.00128 1.92919 4.85938 0.59375C5.64638 0.271998 6.45888 0.0688728 7.29688 -0.015625Z" fill="#4CAF50"/>
<path fill-rule="evenodd" clip-rule="evenodd" d="M4.7344 3.64063C4.91177 3.63544 5.08887 3.64066 5.26565 3.65625C5.38718 3.65819 5.49655 3.69466 5.59377 3.76563C5.93152 4.47247 6.24402 5.19122 6.53127 5.92188C6.56346 6.07125 6.53221 6.20666 6.43752 6.32813C6.25127 6.5665 6.05337 6.79569 5.84377 7.01563C5.78627 7.08378 5.7498 7.16191 5.7344 7.25C6.43793 8.6721 7.53168 9.6721 9.01565 10.25C9.17921 10.2805 9.33546 10.2597 9.4844 10.1875C9.72184 9.92931 9.9354 9.65328 10.125 9.35938C10.3442 9.07722 10.6098 9.03035 10.9219 9.21875C11.4844 9.4896 12.0469 9.76041 12.6094 10.0313C12.6753 10.0669 12.7326 10.1138 12.7813 10.1719C12.8885 11.2098 12.4562 11.9129 11.4844 12.2813C11.0184 12.4583 10.5392 12.4999 10.0469 12.4063C8.57049 12.0817 7.2684 11.4255 6.14065 10.4375C5.1638 9.53913 4.35652 8.5131 3.71877 7.35938C3.45518 6.80513 3.33018 6.22181 3.34377 5.60938C3.4188 4.81794 3.77818 4.19813 4.4219 3.75C4.53065 3.71553 4.6348 3.6791 4.7344 3.64063Z" fill="#F9F9F9"/>
</g>
<defs>
<clipPath id="clip0_170_1013">
<rect width="16" height="16" fill="white"/>
</clipPath>
</defs>
</svg>
