<svg width="25" height="25" viewBox="0 0 25 25" fill="none" xmlns="http://www.w3.org/2000/svg">
<g clip-path="url(#clip0_244_7)">
<path opacity="0.967" fill-rule="evenodd" clip-rule="evenodd" d="M24.9756 9.64355C24.9756 11.5478 24.9756 13.4521 24.9756 15.3564C24.9214 16.0977 24.8645 16.8464 24.8047 17.6025C24.6836 18.6008 24.3418 19.5123 23.7793 20.3369C23.0309 21.1674 22.095 21.615 20.9717 21.6797C15.618 22.0193 10.2631 22.0355 4.90723 21.7285C3.99277 21.7161 3.11386 21.537 2.27051 21.1914C1.43276 20.7605 0.854956 20.1014 0.537109 19.2139C0.392695 18.799 0.278763 18.3758 0.195312 17.9443C0.105387 17.0756 0.0321447 16.213 -0.0244141 15.3564C-0.0244141 13.4521 -0.0244141 11.5478 -0.0244141 9.64355C0.0299069 8.78682 0.103149 7.92417 0.195312 7.05566C0.35433 5.70264 0.980957 4.63657 2.0752 3.85742C2.65021 3.52469 3.2687 3.32938 3.93066 3.27148C9.62725 2.91341 15.3239 2.91341 21.0205 3.27148C23.227 3.57372 24.4721 4.83511 24.7559 7.05566C24.848 7.92417 24.9213 8.78682 24.9756 9.64355ZM9.44824 4.5166C13.2606 4.45599 17.0692 4.5455 20.874 4.78515C21.837 4.85495 22.5287 5.3188 22.9492 6.17676C23.1014 6.60635 23.2153 7.0458 23.291 7.49512C23.5832 10.8155 23.5832 14.1358 23.291 17.4561C23.1976 17.9761 23.0511 18.4807 22.8516 18.9697C22.4018 19.7363 21.7263 20.1351 20.8252 20.166C15.3563 20.5219 9.8876 20.5219 4.41895 20.166C3.61355 20.1737 2.92182 19.9052 2.34375 19.3603C1.97138 18.7806 1.74351 18.1458 1.66016 17.4561C1.35599 14.0522 1.37226 10.6505 1.70898 7.25098C1.81053 6.71846 1.98957 6.21387 2.24609 5.7373C2.63375 5.25469 3.13018 4.95356 3.73535 4.83398C5.64404 4.67572 7.54834 4.56992 9.44824 4.5166Z" fill="white"/>
<path opacity="0.963" fill-rule="evenodd" clip-rule="evenodd" d="M10.1318 8.17878C10.4456 8.16667 10.7386 8.23991 11.0108 8.39851C12.8096 9.40373 14.6162 10.3966 16.4307 11.377C16.902 11.785 16.9916 12.2651 16.6992 12.8175C16.626 12.9558 16.5202 13.0616 16.3818 13.1348C14.5349 14.1153 12.6957 15.1081 10.8643 16.1133C10.1731 16.3985 9.66036 16.2113 9.32618 15.5518C9.30992 15.4542 9.29362 15.3565 9.27736 15.2589C9.24479 13.2406 9.24479 11.2224 9.27736 9.20417C9.33453 8.66374 9.6194 8.32194 10.1318 8.17878ZM10.7666 10.0342C10.7585 11.4992 10.7666 12.964 10.791 14.4288C12.1299 13.6983 13.4727 12.974 14.8193 12.2559C13.4815 11.4894 12.1305 10.7488 10.7666 10.0342Z" fill="white"/>
</g>
<defs>
<clipPath id="clip0_244_7">
<rect width="25" height="25" fill="white"/>
</clipPath>
</defs>
</svg>
